<svg width="151" height="22" viewBox="0 0 151 22" fill="none" xmlns="http://www.w3.org/2000/svg">
<path d="M11.4258 18.0209L4.36423 21.7334L5.71287 13.8702L-8.06192e-05 8.30141L7.89503 7.15418L11.4258 0L14.9566 7.15418L22.8517 8.30141L17.1388 13.8702L18.4874 21.7334L11.4258 18.0209Z" fill="#F6D021"/>
<path d="M43.4629 18.0209L36.4013 21.7334L37.75 13.8702L32.037 8.30141L39.9321 7.15418L43.4629 0L46.9937 7.15418L54.8888 8.30141L49.1759 13.8702L50.5245 21.7334L43.4629 18.0209Z" fill="#F6D021"/>
<path d="M75.5 18.0209L68.4384 21.7334L69.787 13.8702L64.0741 8.30141L71.9692 7.15418L75.5 0L79.0308 7.15418L86.9259 8.30141L81.213 13.8702L82.5616 21.7334L75.5 18.0209Z" fill="#F6D021"/>
<path d="M107.537 18.0209L100.475 21.7334L101.824 13.8702L96.1112 8.30141L104.006 7.15418L107.537 0L111.068 7.15418L118.963 8.30141L113.25 13.8702L114.599 21.7334L107.537 18.0209Z" fill="#F6D021"/>
<path d="M139.574 18.0209L132.513 21.7334L133.861 13.8702L128.148 8.30141L136.043 7.15418L139.574 0L143.105 7.15418L151 8.30141L145.287 13.8702L146.636 21.7334L139.574 18.0209Z" fill="#F6D021"/>
</svg>
